<svg xmlns="http://www.w3.org/2000/svg" width="107" height="107" viewBox="0 0 107 107">
  <g id="Gruppe_14" data-name="Gruppe 14" transform="translate(0.316 0.138)">
    <g id="Ellipse_14" data-name="Ellipse 14" transform="translate(-0.316 -0.138)" fill="#fff" stroke="#707070" stroke-width="3">
      <circle cx="53.5" cy="53.5" r="53.5" stroke="none"/>
      <circle cx="53.5" cy="53.5" r="52" fill="none"/>
    </g>
    <path id="instagram" d="M31.483,31.483a8.182,8.182,0,0,0,2.488-6,8.495,8.495,0,0,0-8.493-8.493,8.495,8.495,0,0,0-8.493,8.493,8.495,8.495,0,0,0,8.493,8.493A8.182,8.182,0,0,0,31.483,31.483Zm3.251-15.26a12.6,12.6,0,0,1,3.815,9.256A13.026,13.026,0,0,1,25.478,38.549,13.026,13.026,0,0,1,12.407,25.478,13.026,13.026,0,0,1,25.478,12.407,12.6,12.6,0,0,1,34.734,16.222Zm6.5-6.5a3.043,3.043,0,0,1,0,4.313,3.052,3.052,0,0,1-5.208-2.156A3.05,3.05,0,0,1,41.236,9.72ZM28,4.578H25.478q-.232,0-2.538-.017t-3.5,0q-1.194.017-3.2.1a26.289,26.289,0,0,0-3.417.332,13.3,13.3,0,0,0-2.372.614A8.686,8.686,0,0,0,5.606,10.45a13.3,13.3,0,0,0-.614,2.372,26.289,26.289,0,0,0-.332,3.417q-.083,2.007-.1,3.2t0,3.5q.017,2.306.017,2.538t-.017,2.538q-.017,2.306,0,3.5t.1,3.2a26.289,26.289,0,0,0,.332,3.417,13.3,13.3,0,0,0,.614,2.372A8.686,8.686,0,0,0,10.45,45.35a13.3,13.3,0,0,0,2.372.614,26.291,26.291,0,0,0,3.417.332q2.007.083,3.2.1t3.5,0q2.306-.017,2.538-.017t2.538.017q2.306.017,3.5,0t3.2-.1a26.291,26.291,0,0,0,3.417-.332,13.3,13.3,0,0,0,2.372-.614,8.686,8.686,0,0,0,4.843-4.843,13.3,13.3,0,0,0,.614-2.372,26.291,26.291,0,0,0,.332-3.417q.083-2.007.1-3.2t0-3.5q-.017-2.306-.017-2.538t.017-2.538q.017-2.306,0-3.5t-.1-3.2a26.291,26.291,0,0,0-.332-3.417,13.3,13.3,0,0,0-.614-2.372,8.686,8.686,0,0,0-4.843-4.843,13.3,13.3,0,0,0-2.372-.614,26.289,26.289,0,0,0-3.417-.332q-2.007-.083-3.2-.1T28,4.578ZM50.79,14.962q.166,2.919.166,10.516T50.79,35.994q-.332,6.9-4.114,10.682T35.994,50.79q-2.919.166-10.516.166T14.962,50.79q-6.9-.332-10.682-4.114T.166,35.994Q0,33.075,0,25.478T.166,14.962Q.5,8.061,4.28,4.28T14.962.166Q17.881,0,25.478,0T35.994.166Q42.895.5,46.677,4.28T50.79,14.962Zm.166,31.748" transform="translate(27.192 27.992)"/>
  </g>
</svg>
