<svg xmlns="http://www.w3.org/2000/svg" width="107" height="107" viewBox="0 0 107 107">
  <g id="Gruppe_10" data-name="Gruppe 10" transform="translate(0.316 0.495)">
    <g id="Ellipse_10" data-name="Ellipse 10" transform="translate(-0.316 -0.495)" fill="#fff" stroke="#707070" stroke-width="3">
      <circle cx="53.5" cy="53.5" r="53.5" stroke="none"/>
      <circle cx="53.5" cy="53.5" r="52" fill="none"/>
    </g>
    <path id="phone" d="M41.873,33.07a9.816,9.816,0,0,1-.3,2.1,11.815,11.815,0,0,1-.625,2.037q-.625,1.487-3.628,3.152a11.531,11.531,0,0,1-5.532,1.517,11.8,11.8,0,0,1-1.576-.1,12.218,12.218,0,0,1-1.71-.372q-.937-.268-1.4-.431t-1.651-.61q-1.19-.446-1.457-.535a26.934,26.934,0,0,1-5.2-2.468,44.825,44.825,0,0,1-7.851-6.424A44.825,44.825,0,0,1,4.52,23.078a26.934,26.934,0,0,1-2.468-5.2q-.089-.268-.535-1.457t-.61-1.651q-.164-.461-.431-1.4A12.219,12.219,0,0,1,.1,11.658,11.8,11.8,0,0,1,0,10.082,11.531,11.531,0,0,1,1.517,4.55q1.665-3,3.152-3.628A11.815,11.815,0,0,1,6.706.3,9.816,9.816,0,0,1,8.8,0a1.666,1.666,0,0,1,.625.089Q9.963.268,11,2.349q.327.565.892,1.606t1.041,1.888q.476.848.922,1.591.089.119.52.743a8.306,8.306,0,0,1,.639,1.056,1.94,1.94,0,0,1,.208.848,2.468,2.468,0,0,1-.848,1.487A14.5,14.5,0,0,1,12.535,13.2a17.91,17.91,0,0,0-1.844,1.576,2.265,2.265,0,0,0-.848,1.368,2.009,2.009,0,0,0,.149.669,6.492,6.492,0,0,0,.253.61q.1.208.416.714t.342.565a31.216,31.216,0,0,0,5.175,6.989,31.216,31.216,0,0,0,6.989,5.175q.059.03.565.342t.714.416a6.493,6.493,0,0,0,.61.253,2.009,2.009,0,0,0,.669.149,2.265,2.265,0,0,0,1.368-.848,17.911,17.911,0,0,0,1.576-1.844A14.5,14.5,0,0,1,30.3,27.494a2.468,2.468,0,0,1,1.487-.848,1.94,1.94,0,0,1,.848.208,8.306,8.306,0,0,1,1.056.639q.625.431.743.52.743.446,1.591.922t1.888,1.041q1.041.565,1.606.892,2.082,1.041,2.26,1.576A1.665,1.665,0,0,1,41.873,33.07Zm0,8.8" transform="translate(30.676 32.276)"/>
  </g>
</svg>
