<svg xmlns="http://www.w3.org/2000/svg" width="486.477" height="431.789" viewBox="0 0 486.477 431.789">
  <path id="tools" d="M416.387,65.244q11.941,28.555,6.23,60.225t-29.074,55.553q-25.959,25.44-61.264,29.594t-65.417-12.98l-29.594,32.189,21.287,20.767,12.46-12.46a16.3,16.3,0,0,1,22.844,0L395.1,340.412a16.3,16.3,0,0,1,0,22.844l-46.207,46.208a16.938,16.938,0,0,1-23.363,0L224.807,307.185a15.16,15.16,0,0,1,0-22.844l11.422-11.422-20.248-19.729L76.32,405.83a31.074,31.074,0,0,1-22.844,9.345,32.828,32.828,0,0,1-23.363-9.345L18.691,393.889a32.593,32.593,0,0,1,0-45.688L178.081,214.77,72.167,108.856H38.939L0,46.554,31.151,15.4l63.86,38.939V87.05L201.963,194.521l31.151-26.478q-22.844-31.151-20.248-70.09T243.5,30.978Q266.861,7.615,298.272,1.9a108.977,108.977,0,0,1,60.485,5.711L290.225,75.109l57.63,57.63ZM57.11,364.3a15.537,15.537,0,0,0-11.422-4.673A17.327,17.327,0,0,0,33.747,364.3a16.3,16.3,0,0,0,0,22.844,16.415,16.415,0,0,0,11.941,5.192,14.788,14.788,0,0,0,11.422-5.192,16.3,16.3,0,0,0,0-22.844Zm429.366,67.494" fill="#fbd400" opacity="0.2"/>
</svg>
