<svg xmlns="http://www.w3.org/2000/svg" width="107" height="106" viewBox="0 0 107 106">
  <g id="Gruppe_11" data-name="Gruppe 11" transform="translate(0.316 -0.145)">
    <g id="Ellipse_11" data-name="Ellipse 11" transform="translate(-0.316 0.145)" fill="#fff" stroke="#707070" stroke-width="3">
      <ellipse cx="53.5" cy="53" rx="53.5" ry="53" stroke="none"/>
      <ellipse cx="53.5" cy="53" rx="52" ry="51.5" fill="none"/>
    </g>
    <path id="at" d="M32.246,21.464a8.217,8.217,0,0,0-1.775-5.606,6.169,6.169,0,0,0-4.893-2.024,9.108,9.108,0,0,0-4.114,1.012,12.4,12.4,0,0,0-3.649,2.8,13.713,13.713,0,0,0-2.637,4.545,17.183,17.183,0,0,0-1.012,5.971A8.43,8.43,0,0,0,15.94,33.9a6.289,6.289,0,0,0,4.993,2.024,8.929,8.929,0,0,0,5.839-2.206,14.39,14.39,0,0,0,4.064-5.507A17.033,17.033,0,0,0,32.246,21.464Zm18.71,4.014a16.4,16.4,0,0,1-1.227,6.535,11.285,11.285,0,0,1-3.268,4.479A15.479,15.479,0,0,1,42.1,38.963a15.141,15.141,0,0,1-4.81.912q-.2,0-.514.017t-.547.017a5.971,5.971,0,0,1-4.711-1.758A4.892,4.892,0,0,1,30.421,35.4a14.261,14.261,0,0,1-4.362,3.649,11.69,11.69,0,0,1-5.756,1.46q-5.341,0-8.277-3.168T9.09,28.4a21.341,21.341,0,0,1,2.19-9.621,17.939,17.939,0,0,1,5.938-6.983,14.136,14.136,0,0,1,8.161-2.571A10.946,10.946,0,0,1,30.521,10.4a8.657,8.657,0,0,1,3.517,3.3l.066-.63.365-1.858a.919.919,0,0,1,.182-.4.409.409,0,0,1,.315-.2h3.915q.166,0,.431.365a.574.574,0,0,1,.1.531L35.43,31.881a7.789,7.789,0,0,0-.166,1.592,2.571,2.571,0,0,0,.415,1.725,2.012,2.012,0,0,0,1.476.431,16.067,16.067,0,0,0,1.891-.182,10.126,10.126,0,0,0,2.422-.8,9.249,9.249,0,0,0,2.554-1.659,8.185,8.185,0,0,0,1.891-2.969,12,12,0,0,0,.8-4.545q0-9.687-5.772-15.459T25.478,4.246a20.638,20.638,0,0,0-8.244,1.692,20.938,20.938,0,0,0-11.3,11.3,20.93,20.93,0,0,0,0,16.488,20.938,20.938,0,0,0,11.3,11.3,20.638,20.638,0,0,0,8.244,1.692,20.7,20.7,0,0,0,13.436-4.777,1.09,1.09,0,0,1,.8-.265.915.915,0,0,1,.7.4l1.36,1.626a1.233,1.233,0,0,1,.232.8,1.2,1.2,0,0,1-.4.73,25.5,25.5,0,0,1-7.547,4.246,25.222,25.222,0,0,1-8.576,1.493,24.788,24.788,0,0,1-9.886-2.024A25.173,25.173,0,0,1,2.024,35.364a25.16,25.16,0,0,1,0-19.772A25.173,25.173,0,0,1,15.592,2.024,24.788,24.788,0,0,1,25.478,0Q36.89,0,43.923,7.033T50.956,25.478Zm0,21.232" transform="translate(27.992 31.99)"/>
  </g>
</svg>
